<svg xmlns="http://www.w3.org/2000/svg" viewBox="0 0 256 256">

<defs>
  <filter id="shadow" x="-20%" y="-20%" width="140%" height="140%">
    <feDropShadow dx="0" dy="4" stdDeviation="5" flood-opacity=".35"/>
  </filter>
</defs>

<rect width="256" height="256" rx="48" fill="#FACC15"/>
<g filter="url(#shadow)">
  <path d="M72 60l18-36 28 28 22-38 24 38 30-28 10 42H72z" fill="#facc15" stroke="#7c5b00" stroke-width="6"/><circle cx="92" cy="40" r="5" fill="#ef4444"/><circle cx="140" cy="31" r="5" fill="#3b82f6"/><circle cx="178" cy="42" r="5" fill="#22c55e"/>
  <path d="M128 42c-47 0-78 31-78 75 0 28 12 49 32 63v28c0 7 6 12 13 12h66c7 0 13-5 13-12v-28c20-14 32-35 32-63 0-44-31-75-78-75z" fill="#f5f1e8"/>
  <ellipse cx="94" cy="119" rx="22" ry="27" fill="#111827"/>
  <ellipse cx="162" cy="119" rx="22" ry="27" fill="#111827"/>
  <path d="M128 139l-13 22h26z" fill="#111827"/>
  <path d="M91 175h74v31H91z" fill="#f5f1e8"/>
  <path d="M101 176v30M115 176v30M128 176v30M141 176v30M155 176v30" stroke="#111827" stroke-width="5"/>
  
</g>
</svg>